<svg width="15" height="21" viewBox="0 0 15 21" fill="none" xmlns="http://www.w3.org/2000/svg">
<path d="M7.50006 4.25C6.45839 4.25 5.57298 4.61458 4.84381 5.34375C4.11464 6.07292 3.75006 6.95833 3.75006 8C3.75006 9.04167 4.11464 9.92708 4.84381 10.6562C5.57298 11.3854 6.45839 11.75 7.50006 11.75C8.54173 11.75 9.42714 11.3854 10.1563 10.6562C10.8855 9.92708 11.2501 9.04167 11.2501 8C11.2501 6.95833 10.8855 6.07292 10.1563 5.34375C9.42714 4.61458 8.54173 4.25 7.50006 4.25ZM7.50006 10.5C6.82298 10.5 6.23704 10.2526 5.74225 9.75781C5.24746 9.26302 5.00006 8.67708 5.00006 8C5.00006 7.32292 5.24746 6.73698 5.74225 6.24219C6.23704 5.7474 6.82298 5.5 7.50006 5.5C8.17714 5.5 8.76308 5.7474 9.25787 6.24219C9.75267 6.73698 10.0001 7.32292 10.0001 8C10.0001 8.67708 9.75267 9.26302 9.25787 9.75781C8.76308 10.2526 8.17714 10.5 7.50006 10.5ZM7.50006 0.5C6.14589 0.5 4.89589 0.838542 3.75006 1.51562C2.60423 2.19271 1.69277 3.10417 1.01569 4.25C0.338603 5.39583 6.10352e-05 6.64583 6.10352e-05 8C6.10352e-05 8.83333 0.104228 9.57552 0.312561 10.2266C0.520894 10.8516 0.92454 11.6328 1.5235 12.5703C1.94017 13.2214 2.79954 14.4844 4.10162 16.3594L6.71881 20.1094C6.9011 20.3698 7.16152 20.5 7.50006 20.5C7.8386 20.5 8.09902 20.3698 8.28131 20.1094L10.8985 16.3594C12.2006 14.4844 13.06 13.2214 13.4766 12.5703C14.0756 11.6328 14.4792 10.8516 14.6876 10.2266C14.8959 9.57552 15.0001 8.83333 15.0001 8C15.0001 6.64583 14.6615 5.39583 13.9844 4.25C13.3074 3.10417 12.3959 2.19271 11.2501 1.51562C10.1042 0.838542 8.85423 0.5 7.50006 0.5ZM7.50006 19.0156C6.87506 18.1042 6.06777 16.9453 5.07819 15.5391C3.82819 13.7422 3.00787 12.5573 2.61725 11.9844C2.07037 11.099 1.70579 10.3958 1.5235 9.875C1.34121 9.32812 1.25006 8.70312 1.25006 8C1.25006 7.16667 1.40631 6.3724 1.71881 5.61719C2.03131 4.86198 2.48704 4.1849 3.086 3.58594C3.68496 2.98698 4.36204 2.53125 5.11725 2.21875C5.87246 1.90625 6.66673 1.75 7.50006 1.75C8.33339 1.75 9.12767 1.90625 9.88287 2.21875C10.6381 2.53125 11.3152 2.98698 11.9141 3.58594C12.5131 4.1849 12.9688 4.86198 13.2813 5.61719C13.5938 6.3724 13.7501 7.16667 13.7501 8C13.7501 8.70312 13.6589 9.32812 13.4766 9.875C13.2943 10.3958 12.9297 11.099 12.3829 11.9844C11.9922 12.5573 11.1719 13.7422 9.92194 15.5391L7.50006 19.0156Z" fill="#0F001A"/>
</svg>
