<svg width="41" height="41" viewBox="0 0 41 41" fill="none" xmlns="http://www.w3.org/2000/svg">
<path d="M18.4583 14.375H26.625C27.1665 14.375 27.6858 14.1599 28.0687 13.777C28.4516 13.3941 28.6667 12.8748 28.6667 12.3333C28.6667 11.7918 28.4516 11.2725 28.0687 10.8897C27.6858 10.5068 27.1665 10.2917 26.625 10.2917H22.5417V8.25C22.5417 7.70851 22.3266 7.18921 21.9437 6.80632C21.5608 6.42343 21.0415 6.20833 20.5 6.20833C19.9585 6.20833 19.4392 6.42343 19.0563 6.80632C18.6734 7.18921 18.4583 7.70851 18.4583 8.25V10.2917C16.8339 10.2917 15.276 10.937 14.1273 12.0856C12.9786 13.2343 12.3333 14.7922 12.3333 16.4167C12.3333 18.0411 12.9786 19.599 14.1273 20.7477C15.276 21.8964 16.8339 22.5417 18.4583 22.5417H22.5417C23.0832 22.5417 23.6025 22.7568 23.9853 23.1397C24.3682 23.5225 24.5833 24.0418 24.5833 24.5833C24.5833 25.1248 24.3682 25.6441 23.9853 26.027C23.6025 26.4099 23.0832 26.625 22.5417 26.625H14.375C13.8335 26.625 13.3142 26.8401 12.9313 27.223C12.5484 27.6059 12.3333 28.1252 12.3333 28.6667C12.3333 29.2081 12.5484 29.7275 12.9313 30.1103C13.3142 30.4932 13.8335 30.7083 14.375 30.7083H18.4583V32.75C18.4583 33.2915 18.6734 33.8108 19.0563 34.1937C19.4392 34.5766 19.9585 34.7917 20.5 34.7917C21.0415 34.7917 21.5608 34.5766 21.9437 34.1937C22.3266 33.8108 22.5417 33.2915 22.5417 32.75V30.7083C24.1661 30.7083 25.724 30.063 26.8727 28.9144C28.0214 27.7657 28.6667 26.2078 28.6667 24.5833C28.6667 22.9589 28.0214 21.401 26.8727 20.2523C25.724 19.1036 24.1661 18.4583 22.5417 18.4583H18.4583C17.9169 18.4583 17.3975 18.2432 17.0147 17.8603C16.6318 17.4775 16.4167 16.9581 16.4167 16.4167C16.4167 15.8752 16.6318 15.3559 17.0147 14.973C17.3975 14.5901 17.9169 14.375 18.4583 14.375ZM34.7917 0.0833282H6.20833C4.58388 0.0833282 3.02597 0.728639 1.8773 1.8773C0.728644 3.02596 0.0833335 4.58388 0.0833335 6.20833V34.7917C0.0833335 36.4161 0.728644 37.974 1.8773 39.1227C3.02597 40.2714 4.58388 40.9167 6.20833 40.9167H34.7917C36.4161 40.9167 37.974 40.2714 39.1227 39.1227C40.2714 37.974 40.9167 36.4161 40.9167 34.7917V6.20833C40.9167 4.58388 40.2714 3.02596 39.1227 1.8773C37.974 0.728639 36.4161 0.0833282 34.7917 0.0833282ZM36.8333 34.7917C36.8333 35.3331 36.6182 35.8525 36.2353 36.2353C35.8525 36.6182 35.3332 36.8333 34.7917 36.8333H6.20833C5.66685 36.8333 5.14754 36.6182 4.76466 36.2353C4.38177 35.8525 4.16667 35.3331 4.16667 34.7917V6.20833C4.16667 5.66685 4.38177 5.14754 4.76466 4.76465C5.14754 4.38177 5.66685 4.16666 6.20833 4.16666H34.7917C35.3332 4.16666 35.8525 4.38177 36.2353 4.76465C36.6182 5.14754 36.8333 5.66685 36.8333 6.20833V34.7917Z" fill="#FFBC53"/>
</svg>