<svg width="39" height="39" viewBox="0 0 39 39" fill="none" xmlns="http://www.w3.org/2000/svg">
<path d="M36.5833 24.625H33.1667V19.5C33.1667 19.0469 32.9867 18.6124 32.6663 18.292C32.3459 17.9716 31.9114 17.7917 31.4583 17.7917H21.2083V14.375H24.625C25.0781 14.375 25.5126 14.195 25.833 13.8746C26.1534 13.5543 26.3333 13.1197 26.3333 12.6667V2.41666C26.3333 1.96358 26.1534 1.52906 25.833 1.20869C25.5126 0.888313 25.0781 0.708328 24.625 0.708328H14.375C13.9219 0.708328 13.4874 0.888313 13.167 1.20869C12.8467 1.52906 12.6667 1.96358 12.6667 2.41666V12.6667C12.6667 13.1197 12.8467 13.5543 13.167 13.8746C13.4874 14.195 13.9219 14.375 14.375 14.375H17.7917V17.7917H7.54168C7.0886 17.7917 6.65408 17.9716 6.3337 18.292C6.01333 18.6124 5.83334 19.0469 5.83334 19.5V24.625H2.41668C1.9636 24.625 1.52908 24.805 1.2087 25.1254C0.888328 25.4457 0.708344 25.8803 0.708344 26.3333V36.5833C0.708344 37.0364 0.888328 37.4709 1.2087 37.7913C1.52908 38.1117 1.9636 38.2917 2.41668 38.2917H12.6667C13.1198 38.2917 13.5543 38.1117 13.8747 37.7913C14.195 37.4709 14.375 37.0364 14.375 36.5833V26.3333C14.375 25.8803 14.195 25.4457 13.8747 25.1254C13.5543 24.805 13.1198 24.625 12.6667 24.625H9.25001V21.2083H29.75V24.625H26.3333C25.8803 24.625 25.4457 24.805 25.1254 25.1254C24.805 25.4457 24.625 25.8803 24.625 26.3333V36.5833C24.625 37.0364 24.805 37.4709 25.1254 37.7913C25.4457 38.1117 25.8803 38.2917 26.3333 38.2917H36.5833C37.0364 38.2917 37.4709 38.1117 37.7913 37.7913C38.1117 37.4709 38.2917 37.0364 38.2917 36.5833V26.3333C38.2917 25.8803 38.1117 25.4457 37.7913 25.1254C37.4709 24.805 37.0364 24.625 36.5833 24.625ZM10.9583 28.0417V34.875H4.12501V28.0417H10.9583ZM16.0833 10.9583V4.125H22.9167V10.9583H16.0833ZM34.875 34.875H28.0417V28.0417H34.875V34.875Z" fill="#FFBC53"/>
</svg>
