<svg width="35" height="28" viewBox="0 0 35 28" fill="none" xmlns="http://www.w3.org/2000/svg">
<path d="M34.2222 3.29175C32.9496 3.85 31.5935 4.22003 30.1797 4.39969C31.6342 3.53131 32.7443 2.16669 33.2661 0.521889C31.9101 1.33039 30.4129 1.90147 28.8172 2.22017C27.5296 0.849139 25.6945 0 23.6925 0C19.8082 0 16.6812 3.15272 16.6812 7.0177C16.6812 7.57381 16.7283 8.10853 16.8438 8.61758C11.011 8.33311 5.84986 5.53758 2.38272 1.27906C1.77742 2.32925 1.42236 3.53131 1.42236 4.82533C1.42236 7.25511 2.67361 9.40897 4.53872 10.6559C3.41153 10.6346 2.30572 10.3073 1.36889 9.79183C1.36889 9.81322 1.36889 9.84103 1.36889 9.86883C1.36889 13.2782 3.80081 16.1101 6.98989 16.7625C6.41881 16.9186 5.79639 16.9935 5.15044 16.9935C4.70128 16.9935 4.24783 16.9678 3.82219 16.8737C4.73122 19.6521 7.31072 21.6948 10.3779 21.7611C7.99089 23.6283 4.96008 24.7534 1.67903 24.7534C1.10367 24.7534 0.551833 24.7277 0 24.6571C3.10781 26.6613 6.79097 27.8056 10.7629 27.8056C23.6732 27.8056 30.7316 17.1111 30.7316 7.84117C30.7316 7.53103 30.7209 7.23158 30.7059 6.93428C32.0983 5.94611 33.2683 4.71197 34.2222 3.29175Z" fill="white"/>
</svg>
