<svg width="20" height="15" viewBox="0 0 20 15" fill="none" xmlns="http://www.w3.org/2000/svg">
<path d="M18.1251 0L1.87506 0C1.35423 0 0.911519 0.182292 0.546936 0.546875C0.182353 0.911458 6.10352e-05 1.35417 6.10352e-05 1.875L6.10352e-05 13.125C6.10352e-05 13.6458 0.182353 14.0885 0.546936 14.4531C0.911519 14.8177 1.35423 15 1.87506 15H18.1251C18.6459 15 19.0886 14.8177 19.4532 14.4531C19.8178 14.0885 20.0001 13.6458 20.0001 13.125V1.875C20.0001 1.35417 19.8178 0.911458 19.4532 0.546875C19.0886 0.182292 18.6459 0 18.1251 0ZM1.87506 1.25L18.1251 1.25C18.3074 1.25 18.4506 1.3151 18.5547 1.44531C18.685 1.54948 18.7501 1.69271 18.7501 1.875V3.47656C17.8386 4.25781 15.8725 5.84635 12.8516 8.24219L12.461 8.55469C11.9402 8.9974 11.5365 9.3099 11.2501 9.49219C10.7553 9.83073 10.3386 10 10.0001 10C9.66152 10 9.24485 9.83073 8.75006 9.49219C8.43756 9.3099 8.02089 8.9974 7.50006 8.55469L7.1485 8.24219C4.12767 5.84635 2.16152 4.25781 1.25006 3.47656V1.875C1.25006 1.69271 1.30214 1.54948 1.40631 1.44531C1.53652 1.3151 1.69277 1.25 1.87506 1.25ZM18.1251 13.75H1.87506C1.69277 13.75 1.53652 13.6979 1.40631 13.5938C1.30214 13.4635 1.25006 13.3073 1.25006 13.125L1.25006 5.11719C2.16152 5.84635 3.86725 7.21354 6.36725 9.21875L6.75787 9.53125C7.35683 10.0521 7.85162 10.4297 8.24225 10.6641C8.89329 11.0547 9.47923 11.25 10.0001 11.25C10.5209 11.25 11.1068 11.0547 11.7579 10.6641C12.1225 10.4297 12.6172 10.0521 13.2422 9.53125L13.6329 9.21875C16.1329 7.21354 17.8386 5.84635 18.7501 5.11719V13.125C18.7501 13.3073 18.685 13.4635 18.5547 13.5938C18.4506 13.6979 18.3074 13.75 18.1251 13.75Z" fill="#0F001A"/>
</svg>
