<svg width="28" height="28" viewBox="0 0 28 28" fill="none" xmlns="http://www.w3.org/2000/svg">
<path fill-rule="evenodd" clip-rule="evenodd" d="M8.75 0H19.25C24.0817 0 28 3.91825 28 8.75V19.25C28 24.0817 24.0817 28 19.25 28H8.75C3.91825 28 0 24.0817 0 19.25V8.75C0 3.91825 3.91825 0 8.75 0ZM19.25 25.375C22.6275 25.375 25.375 22.6275 25.375 19.25V8.75C25.375 5.3725 22.6275 2.625 19.25 2.625H8.75C5.3725 2.625 2.625 5.3725 2.625 8.75V19.25C2.625 22.6275 5.3725 25.375 8.75 25.375H19.25Z" fill="white"/>
<path fill-rule="evenodd" clip-rule="evenodd" d="M7 14C7 10.1342 10.1342 7 14 7C17.8658 7 21 10.1342 21 14C21 17.8658 17.8658 21 14 21C10.1342 21 7 17.8658 7 14ZM9.625 14C9.625 16.4115 11.5885 18.375 14 18.375C16.4115 18.375 18.375 16.4115 18.375 14C18.375 11.5868 16.4115 9.625 14 9.625C11.5885 9.625 9.625 11.5868 9.625 14Z" fill="white"/>
<circle cx="21.525" cy="6.47499" r="0.93275" fill="white"/>
</svg>
