<svg width="36" height="28" viewBox="0 0 36 28" fill="none" xmlns="http://www.w3.org/2000/svg">
<path d="M18.475 14.3483C19.3198 13.617 19.9975 12.7126 20.4619 11.6963C20.9263 10.68 21.1667 9.57571 21.1667 8.45834C21.1667 6.35871 20.3326 4.34507 18.8479 2.86041C17.3633 1.37575 15.3496 0.541672 13.25 0.541672C11.1504 0.541672 9.13674 1.37575 7.65207 2.86041C6.16741 4.34507 5.33333 6.35871 5.33333 8.45834C5.33332 9.57571 5.57369 10.68 6.03812 11.6963C6.50255 12.7126 7.18017 13.617 8.025 14.3483C5.80856 15.352 3.92807 16.9728 2.60839 19.0169C1.2887 21.061 0.585664 23.4419 0.583333 25.875C0.583333 26.2949 0.750148 26.6977 1.04708 26.9946C1.34401 27.2915 1.74674 27.4583 2.16667 27.4583C2.58659 27.4583 2.98932 27.2915 3.28625 26.9946C3.58319 26.6977 3.75 26.2949 3.75 25.875C3.75 23.3554 4.75089 20.9391 6.53249 19.1575C8.31408 17.3759 10.7304 16.375 13.25 16.375C15.7696 16.375 18.1859 17.3759 19.9675 19.1575C21.7491 20.9391 22.75 23.3554 22.75 25.875C22.75 26.2949 22.9168 26.6977 23.2138 26.9946C23.5107 27.2915 23.9134 27.4583 24.3333 27.4583C24.7533 27.4583 25.156 27.2915 25.4529 26.9946C25.7499 26.6977 25.9167 26.2949 25.9167 25.875C25.9143 23.4419 25.2113 21.061 23.8916 19.0169C22.5719 16.9728 20.6914 15.352 18.475 14.3483ZM13.25 13.2083C12.3105 13.2083 11.3922 12.9298 10.611 12.4078C9.82991 11.8859 9.22109 11.144 8.86157 10.2761C8.50206 9.40814 8.40799 8.45307 8.59127 7.53166C8.77455 6.61025 9.22695 5.76388 9.89124 5.09958C10.5555 4.43528 11.4019 3.98289 12.3233 3.79961C13.2447 3.61633 14.1998 3.71039 15.0677 4.06991C15.9357 4.42943 16.6775 5.03825 17.1995 5.81938C17.7214 6.60051 18 7.51888 18 8.45834C18 9.71812 17.4996 10.9263 16.6088 11.8171C15.718 12.7079 14.5098 13.2083 13.25 13.2083ZM28.6717 13.715C29.685 12.5739 30.3469 11.1643 30.5777 9.65588C30.8085 8.14741 30.5985 6.60437 29.9728 5.2125C29.3471 3.82064 28.3325 2.63926 27.0511 1.81059C25.7697 0.981918 24.276 0.541264 22.75 0.541672C22.3301 0.541672 21.9274 0.708487 21.6304 1.00542C21.3335 1.30235 21.1667 1.70508 21.1667 2.12501C21.1667 2.54493 21.3335 2.94766 21.6304 3.24459C21.9274 3.54152 22.3301 3.70834 22.75 3.70834C24.0098 3.70834 25.218 4.20878 26.1088 5.09958C26.9996 5.99038 27.5 7.19856 27.5 8.45834C27.4978 9.28997 27.2772 10.1064 26.8604 10.8261C26.4436 11.5457 25.8452 12.1434 25.125 12.5592C24.8903 12.6946 24.6942 12.888 24.5556 13.1208C24.417 13.3537 24.3404 13.6183 24.3333 13.8892C24.3267 14.158 24.3886 14.424 24.5133 14.6622C24.638 14.9005 24.8212 15.103 25.0458 15.2508L25.6633 15.6625L25.8692 15.7733C27.7777 16.6786 29.3878 18.1103 30.5099 19.9C31.6319 21.6897 32.2192 23.7627 32.2025 25.875C32.2025 26.2949 32.3693 26.6977 32.6663 26.9946C32.9632 27.2915 33.3659 27.4583 33.7858 27.4583C34.2058 27.4583 34.6085 27.2915 34.9054 26.9946C35.2024 26.6977 35.3692 26.2949 35.3692 25.875C35.3821 23.4453 34.7736 21.0526 33.6013 18.9243C32.4291 16.796 30.7321 15.0027 28.6717 13.715Z" fill="#FFBC53"/>
</svg>
