<svg width="41" height="41" viewBox="0 0 41 41" fill="none" xmlns="http://www.w3.org/2000/svg">
<path d="M24.0833 15.125H16.9167C16.4415 15.125 15.9858 15.3138 15.6498 15.6498C15.3138 15.9858 15.125 16.4415 15.125 16.9167V38.4167C15.125 38.8918 15.3138 39.3476 15.6498 39.6836C15.9858 40.0196 16.4415 40.2083 16.9167 40.2083H24.0833C24.5585 40.2083 25.0142 40.0196 25.3502 39.6836C25.6862 39.3476 25.875 38.8918 25.875 38.4167V16.9167C25.875 16.4415 25.6862 15.9858 25.3502 15.6498C25.0142 15.3138 24.5585 15.125 24.0833 15.125ZM22.2917 36.625H18.7083V18.7083H22.2917V36.625ZM38.4167 0.791672H31.25C30.7748 0.791672 30.3191 0.980436 29.9831 1.31644C29.6471 1.65244 29.4583 2.10816 29.4583 2.58334V38.4167C29.4583 38.8918 29.6471 39.3476 29.9831 39.6836C30.3191 40.0196 30.7748 40.2083 31.25 40.2083H38.4167C38.8918 40.2083 39.3476 40.0196 39.6836 39.6836C40.0196 39.3476 40.2083 38.8918 40.2083 38.4167V2.58334C40.2083 2.10816 40.0196 1.65244 39.6836 1.31644C39.3476 0.980436 38.8918 0.791672 38.4167 0.791672ZM36.625 36.625H33.0417V4.375H36.625V36.625ZM9.74999 25.875H2.58332C2.10814 25.875 1.65243 26.0638 1.31642 26.3998C0.980421 26.7358 0.791656 27.1915 0.791656 27.6667V38.4167C0.791656 38.8918 0.980421 39.3476 1.31642 39.6836C1.65243 40.0196 2.10814 40.2083 2.58332 40.2083H9.74999C10.2252 40.2083 10.6809 40.0196 11.0169 39.6836C11.3529 39.3476 11.5417 38.8918 11.5417 38.4167V27.6667C11.5417 27.1915 11.3529 26.7358 11.0169 26.3998C10.6809 26.0638 10.2252 25.875 9.74999 25.875ZM7.95832 36.625H4.37499V29.4583H7.95832V36.625Z" fill="#FFBC53"/>
</svg>
