<svg width="21" height="21" viewBox="0 0 21 21" fill="none" xmlns="http://www.w3.org/2000/svg">
<path d="M19.5626 20.0625L20.461 16.1172C20.5391 15.8307 20.5001 15.5573 20.3438 15.2969C20.2136 15.0365 20.0183 14.8411 19.7579 14.7109L15.5391 12.9141C15.2787 12.8099 15.0183 12.7839 14.7579 12.8359C14.4975 12.9141 14.2761 13.0573 14.0938 13.2656L12.3751 15.375C11.0209 14.6979 9.80996 13.8255 8.74225 12.7578C7.67454 11.6901 6.80214 10.4792 6.12506 9.125L8.23444 7.40625C8.44277 7.22396 8.57298 7.0026 8.62506 6.74219C8.70319 6.48177 8.69017 6.22135 8.586 5.96094L6.78912 1.74219C6.65892 1.48177 6.4636 1.27344 6.20319 1.11719C5.94277 0.986979 5.66933 0.960937 5.38287 1.03906L1.43756 1.9375C1.17714 2.01562 0.95579 2.15885 0.773499 2.36719C0.591207 2.60156 0.500061 2.86198 0.500061 3.14844C0.500061 6.3776 1.30735 9.3724 2.92194 12.1328C4.51048 14.8411 6.64589 16.9766 9.32819 18.5391C12.1146 20.1797 15.1355 21 18.3907 21C18.6511 21 18.8855 20.9089 19.0938 20.7266C19.3282 20.5443 19.4844 20.3229 19.5626 20.0625ZM1.75006 3.14844L5.65631 2.25L7.45319 6.46875L4.60162 8.77344C5.53912 10.8047 6.61985 12.4323 7.84381 13.6562C9.06777 14.8802 10.6954 15.9609 12.7266 16.8984L15.0313 14.0469L19.2501 15.8438L18.3516 19.75C15.3568 19.75 12.5704 18.9948 9.99225 17.4844C7.46621 16 5.47402 14.0078 4.01569 11.5078C2.50527 8.92969 1.75006 6.14323 1.75006 3.14844Z" fill="#0F001A"/>
</svg>
